/* XPM */
static char *_a1ce572e3bb49dcba12970c8c5698f6NCHYrficNSKpXpM5[] = {
/* columns rows colors chars-per-pixel */
"64 64 7 1 ",
"  c #6B5430",
". c #755C36",
"X c #7E623B",
"o c #96784C",
"O c #AA8B5A",
"+ c #B39260",
"@ c #BB9765",
/* pixels */
"OOOO@@@@oooo@@@@@@@@++++++++++++++++++++++++@@@@@@@@@@@@OOOOOOOO",
"OOOO@@@@oooo@@@@@@@@++++++++++++++++++++++++@@@@@@@@@@@@OOOOOOOO",
"OOOO@@@@oooo@@@@@@@@++++++++++++++++++++++++@@@@@@@@@@@@OOOOOOOO",
"OOOO@@@@oooo@@@@@@@@++++++++++++++++++++++++@@@@@@@@@@@@OOOOOOOO",
"OOOOOOOOoooo@@@@@@@@@@@@OOOOOOOOOOOO++++++++++++OOOOOOOOOOOOOOOO",
"OOOOOOOOoooo@@@@@@@@@@@@OOOOOOOOOOOO++++++++++++OOOOOOOOOOOOOOOO",
"OOOOOOOOoooo@@@@@@@@@@@@OOOOOOOOOOOO++++++++++++OOOOOOOOOOOOOOOO",
"OOOOOOOOoooo@@@@@@@@@@@@OOOOOOOOOOOO++++++++++++OOOOOOOOOOOOOOOO",
"@@@@@@@@oooo@@@@OOOOOOOO@@@@@@@@@@@@@@@@@@@@@@@@@@@@@@@@@@@@@@@@",
"@@@@@@@@oooo@@@@OOOOOOOO@@@@@@@@@@@@@@@@@@@@@@@@@@@@@@@@@@@@@@@@",
"@@@@@@@@oooo@@@@OOOOOOOO@@@@@@@@@@@@@@@@@@@@@@@@@@@@@@@@@@@@@@@@",
"@@@@@@@@oooo@@@@OOOOOOOO@@@@@@@@@@@@@@@@@@@@@@@@@@@@@@@@@@@@@@@@",
"XXXXXXXXXXXX    ........XXXX............        ....XXXXXXXXXXXX",
"XXXXXXXXXXXX    ........XXXX............        ....XXXXXXXXXXXX",
"XXXXXXXXXXXX    ........XXXX............        ....XXXXXXXXXXXX",
"XXXXXXXXXXXX    ........XXXX............        ....XXXXXXXXXXXX",
"OOOOOOOO@@@@@@@@OOOOOOOOOOOOOOOO@@@@@@@@oooo@@@@@@@@++++OOOOOOOO",
"OOOOOOOO@@@@@@@@OOOOOOOOOOOOOOOO@@@@@@@@oooo@@@@@@@@++++OOOOOOOO",
"OOOOOOOO@@@@@@@@OOOOOOOOOOOOOOOO@@@@@@@@oooo@@@@@@@@++++OOOOOOOO",
"OOOOOOOO@@@@@@@@OOOOOOOOOOOOOOOO@@@@@@@@oooo@@@@@@@@++++OOOOOOOO",
"OOOOOOOOOOOOOOOO@@@@OOOO++++++++++++@@@@oooo@@@@@@@@@@@@@@@@OOOO",
"OOOOOOOOOOOOOOOO@@@@OOOO++++++++++++@@@@oooo@@@@@@@@@@@@@@@@OOOO",
"OOOOOOOOOOOOOOOO@@@@OOOO++++++++++++@@@@oooo@@@@@@@@@@@@@@@@OOOO",
"OOOOOOOOOOOOOOOO@@@@OOOO++++++++++++@@@@oooo@@@@@@@@@@@@@@@@OOOO",
"OOOO++++++++++++++++@@@@@@@@@@@@@@@@@@@@XXXX@@@@++++OOOOOOOOOOOO",
"OOOO++++++++++++++++@@@@@@@@@@@@@@@@@@@@XXXX@@@@++++OOOOOOOOOOOO",
"OOOO++++++++++++++++@@@@@@@@@@@@@@@@@@@@XXXX@@@@++++OOOOOOOOOOOO",
"OOOO++++++++++++++++@@@@@@@@@@@@@@@@@@@@XXXX@@@@++++OOOOOOOOOOOO",
"                                XXXXXXXXXXXX            XXXXXXXX",
"                                XXXXXXXXXXXX            XXXXXXXX",
"                                XXXXXXXXXXXX            XXXXXXXX",
"                                XXXXXXXXXXXX            XXXXXXXX",
"++++@@@@++++++++@@@@@@@@oooo@@@@@@@@@@@@@@@@@@@@@@@@@@@@@@@@@@@@",
"++++@@@@++++++++@@@@@@@@oooo@@@@@@@@@@@@@@@@@@@@@@@@@@@@@@@@@@@@",
"++++@@@@++++++++@@@@@@@@oooo@@@@@@@@@@@@@@@@@@@@@@@@@@@@@@@@@@@@",
"++++@@@@++++++++@@@@@@@@oooo@@@@@@@@@@@@@@@@@@@@@@@@@@@@@@@@@@@@",
"++++++++@@@@++++++++@@@@oooo@@@@++++++++++++OOOOOOOOOOOOOOOOOOOO",
"++++++++@@@@++++++++@@@@oooo@@@@++++++++++++OOOOOOOOOOOOOOOOOOOO",
"++++++++@@@@++++++++@@@@oooo@@@@++++++++++++OOOOOOOOOOOOOOOOOOOO",
"++++++++@@@@++++++++@@@@oooo@@@@++++++++++++OOOOOOOOOOOOOOOOOOOO",
"OOOOOOOOOOOO@@@@@@@@@@@@oooo@@@@++++++++OOOOOOOOOOOOOOOO@@@@@@@@",
"OOOOOOOOOOOO@@@@@@@@@@@@oooo@@@@++++++++OOOOOOOOOOOOOOOO@@@@@@@@",
"OOOOOOOOOOOO@@@@@@@@@@@@oooo@@@@++++++++OOOOOOOOOOOOOOOO@@@@@@@@",
"OOOOOOOOOOOO@@@@@@@@@@@@oooo@@@@++++++++OOOOOOOOOOOOOOOO@@@@@@@@",
"            XXXXXXXXXXXXXXXX        ............XXXXXXXX        ",
"            XXXXXXXXXXXXXXXX        ............XXXXXXXX        ",
"            XXXXXXXXXXXXXXXX        ............XXXXXXXX        ",
"            XXXXXXXXXXXXXXXX        ............XXXXXXXX        ",
"@@@@@@@@@@@@++++++++++++++++@@@@@@@@@@@@OOOOOOOO++++@@@@ooooOOOO",
"@@@@@@@@@@@@++++++++++++++++@@@@@@@@@@@@OOOOOOOO++++@@@@ooooOOOO",
"@@@@@@@@@@@@++++++++++++++++@@@@@@@@@@@@OOOOOOOO++++@@@@ooooOOOO",
"@@@@@@@@@@@@++++++++++++++++@@@@@@@@@@@@OOOOOOOO++++@@@@ooooOOOO",
"++++@@@@++++OOOOOOOOOOOOOOOOOOOOOOOOOOOOOOOO++++@@@@++++ooooOOOO",
"++++@@@@++++OOOOOOOOOOOOOOOOOOOOOOOOOOOOOOOO++++@@@@++++ooooOOOO",
"++++@@@@++++OOOOOOOOOOOOOOOOOOOOOOOOOOOOOOOO++++@@@@++++ooooOOOO",
"++++@@@@++++OOOOOOOOOOOOOOOOOOOOOOOOOOOOOOOO++++@@@@++++ooooOOOO",
"OOOOOOOOOOOO@@@@@@@@@@@@@@@@@@@@@@@@@@@@@@@@++++++++++++XXXX@@@@",
"OOOOOOOOOOOO@@@@@@@@@@@@@@@@@@@@@@@@@@@@@@@@++++++++++++XXXX@@@@",
"OOOOOOOOOOOO@@@@@@@@@@@@@@@@@@@@@@@@@@@@@@@@++++++++++++XXXX@@@@",
"OOOOOOOOOOOO@@@@@@@@@@@@@@@@@@@@@@@@@@@@@@@@++++++++++++XXXX@@@@",
"        ................XXXXXXXX............XXXXXXXX    ........",
"        ................XXXXXXXX............XXXXXXXX    ........",
"        ................XXXXXXXX............XXXXXXXX    ........",
"        ................XXXXXXXX............XXXXXXXX    ........"
};
