/* XPM */
static char *_7bc77435ce34f30c0658a5ecd7f04f9TV8llpKlvFEq3RLy[] = {
/* columns rows colors chars-per-pixel */
"64 64 3 1 ",
"  c #181425",
". c #262B44",
"X c #3A4466",
/* pixels */
"            XXXXXXXXXXXX....                                    ",
"            XXXXXXXXXXXX....                                    ",
"            XXXXXXXXXXXX....                                    ",
"            XXXXXXXXXXXX....                                    ",
"        XXXX....................        XXXXXXXXXXXX....        ",
"        XXXX....................        XXXXXXXXXXXX....        ",
"        XXXX....................        XXXXXXXXXXXX....        ",
"        XXXX....................        XXXXXXXXXXXX....        ",
"        XXXX....................    XXXX................        ",
"        XXXX....................    XXXX................        ",
"        XXXX....................    XXXX................        ",
"        XXXX....................    XXXX................        ",
"XXXX        ................        XXXX............        XXXX",
"XXXX        ................        XXXX............        XXXX",
"XXXX        ................        XXXX............        XXXX",
"XXXX        ................        XXXX............        XXXX",
"........        ........                                XXXX....",
"........        ........                                XXXX....",
"........        ........                                XXXX....",
"........        ........                                XXXX....",
"........                    XXXXXXXXXXXX....            XXXX....",
"........                    XXXXXXXXXXXX....            XXXX....",
"........                    XXXXXXXXXXXX....            XXXX....",
"........                    XXXXXXXXXXXX....            XXXX....",
"........                XXXX....................        ........",
"........                XXXX....................        ........",
"........                XXXX....................        ........",
"........                XXXX....................        ........",
"....                XXXX........................            ....",
"....                XXXX........................            ....",
"....                XXXX........................            ....",
"....                XXXX........................            ....",
"                    XXXX....................                    ",
"                    XXXX....................                    ",
"                    XXXX....................                    ",
"                    XXXX....................                    ",
"XXXXXXXX....            ................                XXXXXXXX",
"XXXXXXXX....            ................                XXXXXXXX",
"XXXXXXXX....            ................                XXXXXXXX",
"XXXXXXXX....            ................                XXXXXXXX",
"................                                    XXXX........",
"................                                    XXXX........",
"................                                    XXXX........",
"................                                    XXXX........",
"....................                                XXXX........",
"....................                                XXXX........",
"....................                                XXXX........",
"....................                                XXXX........",
"....................        XXXXXXXXXXXXXXXX....    XXXX........",
"....................        XXXXXXXXXXXXXXXX....    XXXX........",
"....................        XXXXXXXXXXXXXXXX....    XXXX........",
"....................        XXXXXXXXXXXXXXXX....    XXXX........",
"....................    XXXX....................    ............",
"....................    XXXX....................    ............",
"....................    XXXX....................    ............",
"....................    XXXX....................    ............",
"................        XXXX....................        ........",
"................        XXXX....................        ........",
"................        XXXX....................        ........",
"................        XXXX....................        ........",
"                            ................                    ",
"                            ................                    ",
"                            ................                    ",
"                            ................                    "
};
