/* XPM */
static char *_97adbba8e174338a226541d4e0286bcteaZgaaUDQQXSbKQ[] = {
/* columns rows colors chars-per-pixel */
"64 64 9 1 ",
"  c #6BB053",
". c #5C9651",
"X c #265C42",
"o c #347646",
"O c #3E2731",
"+ c #181425",
"@ c #2E1F2C",
"# c #4D2D33",
"$ c #75483A",
/* pixels */
"                            ....                                ",
"                            ....                                ",
"                            ....                                ",
"                            ....                                ",
"XXXX    ....XXXXoooo....    XXXXXXXX        ............    ....",
"XXXX    ....XXXXoooo....    XXXXXXXX        ............    ....",
"XXXX    ....XXXXoooo....    XXXXXXXX        ............    ....",
"XXXX    ....XXXXoooo....    XXXXXXXX        ............    ....",
"OOOO....ooooOOOOXXXX........XXXXOOOO........OOOOooooXXXX........",
"OOOO....ooooOOOOXXXX........XXXXOOOO........OOOOooooXXXX........",
"OOOO....ooooOOOOXXXX........XXXXOOOO........OOOOooooXXXX........",
"OOOO....ooooOOOOXXXX........XXXXOOOO........OOOOooooXXXX........",
"++++ooooXXXX++++@@@@XXXXooooOOOOOOOO....oooo++++XXXXOOOOXXXXXXXX",
"++++ooooXXXX++++@@@@XXXXooooOOOOOOOO....oooo++++XXXXOOOOXXXXXXXX",
"++++ooooXXXX++++@@@@XXXXooooOOOOOOOO....oooo++++XXXXOOOOXXXXXXXX",
"++++ooooXXXX++++@@@@XXXXooooOOOOOOOO....oooo++++XXXXOOOOXXXXXXXX",
"@@@@XXXXOOOO@@@@####OOOOXXXXOOOO++++ooooXXXX@@@@OOOOOOOO++++@@@@",
"@@@@XXXXOOOO@@@@####OOOOXXXXOOOO++++ooooXXXX@@@@OOOOOOOO++++@@@@",
"@@@@XXXXOOOO@@@@####OOOOXXXXOOOO++++ooooXXXX@@@@OOOOOOOO++++@@@@",
"@@@@XXXXOOOO@@@@####OOOOXXXXOOOO++++ooooXXXX@@@@OOOOOOOO++++@@@@",
"@@@@OOOO@@@@########OOOOOOOO++++@@@@XXXXOOOO@@@@OOOOOOOO########",
"@@@@OOOO@@@@########OOOOOOOO++++@@@@XXXXOOOO@@@@OOOOOOOO########",
"@@@@OOOO@@@@########OOOOOOOO++++@@@@XXXXOOOO@@@@OOOOOOOO########",
"@@@@OOOO@@@@########OOOOOOOO++++@@@@XXXXOOOO@@@@OOOOOOOO########",
"@@@@@@@@@@@@############OOOO@@@@####OOOO####@@@@OOOO########@@@@",
"@@@@@@@@@@@@############OOOO@@@@####OOOO####@@@@OOOO########@@@@",
"@@@@@@@@@@@@############OOOO@@@@####OOOO####@@@@OOOO########@@@@",
"@@@@@@@@@@@@############OOOO@@@@####OOOO####@@@@OOOO########@@@@",
"$$$$####@@@@$$$$$$$$$$$$####@@@@########$$$$$$$$@@@@++++@@@@$$$$",
"$$$$####@@@@$$$$$$$$$$$$####@@@@########$$$$$$$$@@@@++++@@@@$$$$",
"$$$$####@@@@$$$$$$$$$$$$####@@@@########$$$$$$$$@@@@++++@@@@$$$$",
"$$$$####@@@@$$$$$$$$$$$$####@@@@########$$$$$$$$@@@@++++@@@@$$$$",
"$$$$$$$$@@@@$$$$$$$$$$$$$$$$@@@@$$$$$$$$$$$$$$$$$$$$@@@@$$$$$$$$",
"$$$$$$$$@@@@$$$$$$$$$$$$$$$$@@@@$$$$$$$$$$$$$$$$$$$$@@@@$$$$$$$$",
"$$$$$$$$@@@@$$$$$$$$$$$$$$$$@@@@$$$$$$$$$$$$$$$$$$$$@@@@$$$$$$$$",
"$$$$$$$$@@@@$$$$$$$$$$$$$$$$@@@@$$$$$$$$$$$$$$$$$$$$@@@@$$$$$$$$",
"$$$$$$$$@@@@####$$$$$$$$$$$$####$$$$$$$$$$$$$$$$$$$$####$$$$$$$$",
"$$$$$$$$@@@@####$$$$$$$$$$$$####$$$$$$$$$$$$$$$$$$$$####$$$$$$$$",
"$$$$$$$$@@@@####$$$$$$$$$$$$####$$$$$$$$$$$$$$$$$$$$####$$$$$$$$",
"$$$$$$$$@@@@####$$$$$$$$$$$$####$$$$$$$$$$$$$$$$$$$$####$$$$$$$$",
"####$$$$$$$$@@@@############@@@@####$$$$$$$$$$$$####@@@@@@@@####",
"####$$$$$$$$@@@@############@@@@####$$$$$$$$$$$$####@@@@@@@@####",
"####$$$$$$$$@@@@############@@@@####$$$$$$$$$$$$####@@@@@@@@####",
"####$$$$$$$$@@@@############@@@@####$$$$$$$$$$$$####@@@@@@@@####",
"$$$$$$$$$$$$$$$$@@@@@@@@$$$$$$$$####@@@@########@@@@$$$$$$$$@@@@",
"$$$$$$$$$$$$$$$$@@@@@@@@$$$$$$$$####@@@@########@@@@$$$$$$$$@@@@",
"$$$$$$$$$$$$$$$$@@@@@@@@$$$$$$$$####@@@@########@@@@$$$$$$$$@@@@",
"$$$$$$$$$$$$$$$$@@@@@@@@$$$$$$$$####@@@@########@@@@$$$$$$$$@@@@",
"####$$$$$$$$########$$$$$$$$$$$$$$$$++++@@@@@@@@$$$$$$$$$$$$$$$$",
"####$$$$$$$$########$$$$$$$$$$$$$$$$++++@@@@@@@@$$$$$$$$$$$$$$$$",
"####$$$$$$$$########$$$$$$$$$$$$$$$$++++@@@@@@@@$$$$$$$$$$$$$$$$",
"####$$$$$$$$########$$$$$$$$$$$$$$$$++++@@@@@@@@$$$$$$$$$$$$$$$$",
"############@@@@####$$$$$$$$$$$$$$$$@@@@$$$$$$$$####$$$$$$$$$$$$",
"############@@@@####$$$$$$$$$$$$$$$$@@@@$$$$$$$$####$$$$$$$$$$$$",
"############@@@@####$$$$$$$$$$$$$$$$@@@@$$$$$$$$####$$$$$$$$$$$$",
"############@@@@####$$$$$$$$$$$$$$$$@@@@$$$$$$$$####$$$$$$$$$$$$",
"####$$$$$$$$####@@@@########$$$$####$$$$$$$$$$$$$$$$####$$$$$$$$",
"####$$$$$$$$####@@@@########$$$$####$$$$$$$$$$$$$$$$####$$$$$$$$",
"####$$$$$$$$####@@@@########$$$$####$$$$$$$$$$$$$$$$####$$$$$$$$",
"####$$$$$$$$####@@@@########$$$$####$$$$$$$$$$$$$$$$####$$$$$$$$",
"$$$$$$$$$$$$$$$$@@@@$$$$$$$$####@@@@$$$$$$$$$$$$$$$$@@@@########",
"$$$$$$$$$$$$$$$$@@@@$$$$$$$$####@@@@$$$$$$$$$$$$$$$$@@@@########",
"$$$$$$$$$$$$$$$$@@@@$$$$$$$$####@@@@$$$$$$$$$$$$$$$$@@@@########",
"$$$$$$$$$$$$$$$$@@@@$$$$$$$$####@@@@$$$$$$$$$$$$$$$$@@@@########"
};
